<svg width="5100" height="2935" viewBox="0 0 5100 2935" fill="none" xmlns="http://www.w3.org/2000/svg">
<path d="M326.66 1478.76L311.133 1483.74L326.66 1489.02L505.957 1558.16V1615.58L257.52 1504.54V1461.77L505.957 1351.03V1408.45L326.66 1478.76ZM895.312 1544.68C892.773 1564.41 887.695 1582.57 880.078 1599.17C872.461 1615.58 862.5 1629.74 850.195 1641.65C838.086 1653.37 823.633 1662.55 806.836 1669.19C790.234 1675.64 771.68 1678.86 751.172 1678.86C733.594 1678.86 717.578 1676.42 703.125 1671.54C688.867 1666.46 676.074 1659.52 664.746 1650.73C653.613 1641.95 643.945 1631.59 635.742 1619.68C627.734 1607.77 620.996 1594.78 615.527 1580.71C610.254 1566.65 606.25 1551.91 603.516 1536.48C600.977 1521.05 599.609 1505.42 599.414 1489.6V1430.13C599.609 1414.31 600.977 1398.68 603.516 1383.25C606.25 1367.82 610.254 1353.08 615.527 1339.02C620.996 1324.95 627.734 1311.96 635.742 1300.05C643.945 1287.94 653.613 1277.49 664.746 1268.7C676.074 1259.91 688.867 1253.08 703.125 1248.2C717.383 1243.12 733.398 1240.58 751.172 1240.58C772.461 1240.58 791.504 1243.9 808.301 1250.54C825.098 1256.98 839.551 1266.26 851.66 1278.37C863.77 1290.29 873.438 1304.64 880.664 1321.44C888.086 1338.23 892.969 1356.79 895.312 1377.1H841.113C839.355 1364.21 836.328 1352.2 832.031 1341.07C827.734 1329.93 821.973 1320.17 814.746 1311.77C807.52 1303.37 798.633 1296.83 788.086 1292.14C777.734 1287.26 765.43 1284.82 751.172 1284.82C738.281 1284.82 726.855 1286.96 716.895 1291.26C707.129 1295.36 698.633 1301.03 691.406 1308.25C684.375 1315.48 678.418 1323.88 673.535 1333.45C668.848 1343.02 665.039 1353.18 662.109 1363.92C659.18 1374.66 657.031 1385.7 655.664 1397.02C654.492 1408.16 653.906 1419 653.906 1429.54V1489.6C653.906 1500.15 654.492 1511.09 655.664 1522.41C657.031 1533.55 659.18 1544.58 662.109 1555.52C665.039 1566.26 668.848 1576.42 673.535 1585.99C678.223 1595.56 684.18 1604.05 691.406 1611.48C698.633 1618.7 707.129 1624.46 716.895 1628.76C726.66 1632.86 738.086 1634.91 751.172 1634.91C765.43 1634.91 777.734 1632.67 788.086 1628.18C798.633 1623.68 807.52 1617.43 814.746 1609.43C821.973 1601.22 827.734 1591.65 832.031 1580.71C836.328 1569.58 839.355 1557.57 841.113 1544.68H895.312ZM964.16 1511.57C964.16 1488.72 967.48 1467.53 974.121 1448C980.762 1428.27 990.234 1411.18 1002.54 1396.73C1015.04 1382.28 1030.18 1370.95 1047.95 1362.75C1065.72 1354.35 1085.74 1350.15 1108.01 1350.15C1130.47 1350.15 1150.59 1354.35 1168.36 1362.75C1186.33 1370.95 1201.46 1382.28 1213.77 1396.73C1226.27 1411.18 1235.84 1428.27 1242.48 1448C1249.12 1467.53 1252.44 1488.72 1252.44 1511.57V1518.02C1252.44 1540.87 1249.12 1562.06 1242.48 1581.59C1235.84 1601.12 1226.27 1618.12 1213.77 1632.57C1201.46 1647.02 1186.43 1658.35 1168.65 1666.55C1150.88 1674.76 1130.86 1678.86 1108.59 1678.86C1086.13 1678.86 1065.92 1674.76 1047.95 1666.55C1030.18 1658.35 1015.04 1647.02 1002.54 1632.57C990.234 1618.12 980.762 1601.12 974.121 1581.59C967.48 1562.06 964.16 1540.87 964.16 1518.02V1511.57ZM1018.36 1518.02C1018.36 1533.64 1020.21 1548.59 1023.93 1562.84C1027.64 1576.91 1033.2 1589.31 1040.62 1600.05C1048.24 1610.79 1057.71 1619.29 1069.04 1625.54C1080.37 1631.79 1093.55 1634.91 1108.59 1634.91C1123.44 1634.91 1136.43 1631.79 1147.56 1625.54C1158.89 1619.29 1168.26 1610.79 1175.68 1600.05C1183.3 1589.31 1188.96 1576.91 1192.68 1562.84C1196.39 1548.59 1198.24 1533.64 1198.24 1518.02V1511.57C1198.24 1496.14 1196.29 1481.4 1192.38 1467.34C1188.67 1453.08 1183.01 1440.58 1175.39 1429.84C1167.97 1419.09 1158.59 1410.6 1147.27 1404.35C1136.13 1397.9 1123.05 1394.68 1108.01 1394.68C1092.97 1394.68 1079.88 1397.9 1068.75 1404.35C1057.62 1410.6 1048.24 1419.09 1040.62 1429.84C1033.2 1440.58 1027.64 1453.08 1023.93 1467.34C1020.21 1481.4 1018.36 1496.14 1018.36 1511.57V1518.02ZM1329.49 1511.87C1329.49 1488.23 1332.42 1466.55 1338.28 1446.83C1344.34 1426.91 1352.83 1409.82 1363.77 1395.56C1374.9 1381.3 1388.28 1370.17 1403.91 1362.16C1419.53 1354.15 1437.01 1350.15 1456.35 1350.15C1475.29 1350.15 1491.8 1353.37 1505.86 1359.82C1520.12 1366.07 1532.42 1375.25 1542.77 1387.36V1223H1596.97V1673H1547.17L1544.82 1639.6C1534.28 1652.49 1521.68 1662.26 1507.03 1668.9C1492.38 1675.54 1475.29 1678.86 1455.76 1678.86C1436.62 1678.86 1419.24 1674.76 1403.61 1666.55C1388.18 1658.35 1375 1647.02 1364.06 1632.57C1353.12 1618.12 1344.63 1601.12 1338.57 1581.59C1332.52 1561.87 1329.49 1540.68 1329.49 1518.02V1511.87ZM1383.69 1518.02C1383.69 1533.45 1385.35 1548.1 1388.67 1561.96C1391.99 1575.83 1397.07 1588.04 1403.91 1598.59C1410.94 1609.13 1419.82 1617.53 1430.57 1623.78C1441.31 1629.84 1454.2 1632.86 1469.24 1632.86C1478.42 1632.86 1486.72 1631.79 1494.14 1629.64C1501.56 1627.49 1508.3 1624.46 1514.36 1620.56C1520.41 1616.46 1525.78 1611.67 1530.47 1606.2C1535.16 1600.54 1539.26 1594.29 1542.77 1587.45V1440.38C1535.74 1427.49 1526.27 1416.95 1514.36 1408.74C1502.44 1400.34 1487.6 1396.14 1469.82 1396.14C1454.59 1396.14 1441.5 1399.27 1430.57 1405.52C1419.82 1411.77 1410.94 1420.27 1403.91 1431.01C1397.07 1441.55 1391.99 1453.86 1388.67 1467.92C1385.35 1481.79 1383.69 1496.44 1383.69 1511.87V1518.02ZM1708.59 1356.01H1870.61V1626.12H1974.02V1673H1708.59V1626.12H1816.41V1403.18H1708.59V1356.01ZM1809.38 1272.8C1809.38 1263.82 1812.01 1256.3 1817.29 1250.25C1822.75 1244 1830.96 1240.87 1841.89 1240.87C1852.64 1240.87 1860.74 1244 1866.21 1250.25C1871.68 1256.3 1874.41 1263.82 1874.41 1272.8C1874.41 1281.59 1871.68 1288.92 1866.21 1294.78C1860.74 1300.64 1852.64 1303.57 1841.89 1303.57C1830.96 1303.57 1822.75 1300.64 1817.29 1294.78C1812.01 1288.92 1809.38 1281.59 1809.38 1272.8ZM2109.08 1356.01L2112.89 1402.88C2124.41 1386.48 2138.57 1373.68 2155.37 1364.5C2172.17 1355.13 2190.92 1350.34 2211.62 1350.15C2228.22 1350.15 2243.26 1352.49 2256.74 1357.18C2270.41 1361.87 2282.03 1369.19 2291.6 1379.15C2301.17 1389.11 2308.5 1401.81 2313.57 1417.24C2318.85 1432.47 2321.48 1450.64 2321.48 1471.73V1673H2267.29V1472.9C2267.29 1458.84 2265.72 1446.93 2262.6 1437.16C2259.47 1427.39 2254.79 1419.48 2248.54 1413.43C2242.48 1407.38 2234.96 1402.98 2225.98 1400.25C2217.19 1397.51 2207.03 1396.14 2195.51 1396.14C2177.34 1396.14 2161.33 1400.73 2147.46 1409.91C2133.79 1418.9 2122.85 1430.81 2114.65 1445.66V1673H2060.45V1356.01H2109.08ZM2410.84 1511.87C2410.84 1488.23 2413.67 1466.55 2419.34 1446.83C2425.2 1426.91 2433.59 1409.82 2444.53 1395.56C2455.47 1381.3 2468.75 1370.17 2484.38 1362.16C2500 1354.15 2517.68 1350.15 2537.4 1350.15C2556.93 1350.15 2574.02 1353.66 2588.67 1360.7C2603.52 1367.53 2616.11 1377.49 2626.46 1390.58L2629.1 1356.01H2678.32V1666.26C2678.32 1687.16 2675 1705.71 2668.36 1721.93C2661.91 1738.14 2652.73 1751.91 2640.82 1763.23C2629.1 1774.56 2615.04 1783.16 2598.63 1789.02C2582.23 1794.88 2564.06 1797.8 2544.14 1797.8C2535.94 1797.8 2526.56 1796.83 2516.02 1794.88C2505.47 1793.12 2494.73 1790.09 2483.79 1785.79C2473.05 1781.69 2462.6 1776.12 2452.44 1769.09C2442.48 1762.06 2433.89 1753.37 2426.66 1743.02L2454.79 1710.5C2461.43 1718.51 2468.26 1725.25 2475.29 1730.71C2482.32 1736.38 2489.45 1740.87 2496.68 1744.19C2503.91 1747.51 2511.13 1749.86 2518.36 1751.22C2525.59 1752.79 2532.81 1753.57 2540.04 1753.57C2552.93 1753.57 2564.55 1751.71 2574.9 1748C2585.25 1744.29 2594.04 1738.82 2601.27 1731.59C2608.69 1724.56 2614.36 1715.77 2618.26 1705.23C2622.17 1694.68 2624.12 1682.57 2624.12 1668.9V1641.65C2613.57 1653.76 2601.07 1663.04 2586.62 1669.48C2572.36 1675.73 2555.76 1678.86 2536.82 1678.86C2517.48 1678.86 2500 1674.76 2484.38 1666.55C2468.75 1658.35 2455.47 1647.02 2444.53 1632.57C2433.79 1618.12 2425.49 1601.12 2419.63 1581.59C2413.77 1561.87 2410.84 1540.68 2410.84 1518.02V1511.87ZM2465.04 1518.02C2465.04 1533.45 2466.6 1548.1 2469.73 1561.96C2473.05 1575.83 2478.12 1588.04 2484.96 1598.59C2491.99 1609.13 2500.88 1617.53 2511.62 1623.78C2522.36 1629.84 2535.25 1632.86 2550.29 1632.86C2559.67 1632.86 2568.07 1631.79 2575.49 1629.64C2583.11 1627.3 2589.84 1624.07 2595.7 1619.97C2601.76 1615.87 2607.13 1610.99 2611.82 1605.32C2616.5 1599.66 2620.61 1593.41 2624.12 1586.57V1441.26C2620.61 1434.62 2616.5 1428.57 2611.82 1423.1C2607.13 1417.63 2601.76 1412.94 2595.7 1409.04C2589.65 1404.93 2582.91 1401.81 2575.49 1399.66C2568.07 1397.32 2559.86 1396.14 2550.88 1396.14C2535.64 1396.14 2522.56 1399.27 2511.62 1405.52C2500.88 1411.77 2491.99 1420.27 2484.96 1431.01C2478.12 1441.55 2473.05 1453.86 2469.73 1467.92C2466.6 1481.79 2465.04 1496.44 2465.04 1511.87V1518.02ZM3417.77 1544.68C3415.23 1564.41 3410.16 1582.57 3402.54 1599.17C3394.92 1615.58 3384.96 1629.74 3372.66 1641.65C3360.55 1653.37 3346.09 1662.55 3329.3 1669.19C3312.7 1675.64 3294.14 1678.86 3273.63 1678.86C3256.05 1678.86 3240.04 1676.42 3225.59 1671.54C3211.33 1666.46 3198.54 1659.52 3187.21 1650.73C3176.07 1641.95 3166.41 1631.59 3158.2 1619.68C3150.2 1607.77 3143.46 1594.78 3137.99 1580.71C3132.71 1566.65 3128.71 1551.91 3125.98 1536.48C3123.44 1521.05 3122.07 1505.42 3121.88 1489.6V1430.13C3122.07 1414.31 3123.44 1398.68 3125.98 1383.25C3128.71 1367.82 3132.71 1353.08 3137.99 1339.02C3143.46 1324.95 3150.2 1311.96 3158.2 1300.05C3166.41 1287.94 3176.07 1277.49 3187.21 1268.7C3198.54 1259.91 3211.33 1253.08 3225.59 1248.2C3239.84 1243.12 3255.86 1240.58 3273.63 1240.58C3294.92 1240.58 3313.96 1243.9 3330.76 1250.54C3347.56 1256.98 3362.01 1266.26 3374.12 1278.37C3386.23 1290.29 3395.9 1304.64 3403.12 1321.44C3410.55 1338.23 3415.43 1356.79 3417.77 1377.1H3363.57C3361.82 1364.21 3358.79 1352.2 3354.49 1341.07C3350.2 1329.93 3344.43 1320.17 3337.21 1311.77C3329.98 1303.37 3321.09 1296.83 3310.55 1292.14C3300.2 1287.26 3287.89 1284.82 3273.63 1284.82C3260.74 1284.82 3249.32 1286.96 3239.36 1291.26C3229.59 1295.36 3221.09 1301.03 3213.87 1308.25C3206.84 1315.48 3200.88 1323.88 3196 1333.45C3191.31 1343.02 3187.5 1353.18 3184.57 1363.92C3181.64 1374.66 3179.49 1385.7 3178.12 1397.02C3176.95 1408.16 3176.37 1419 3176.37 1429.54V1489.6C3176.37 1500.15 3176.95 1511.09 3178.12 1522.41C3179.49 1533.55 3181.64 1544.58 3184.57 1555.52C3187.5 1566.26 3191.31 1576.42 3196 1585.99C3200.68 1595.56 3206.64 1604.05 3213.87 1611.48C3221.09 1618.7 3229.59 1624.46 3239.36 1628.76C3249.12 1632.86 3260.55 1634.91 3273.63 1634.91C3287.89 1634.91 3300.2 1632.67 3310.55 1628.18C3321.09 1623.68 3329.98 1617.43 3337.21 1609.43C3344.43 1601.22 3350.2 1591.65 3354.49 1580.71C3358.79 1569.58 3361.82 1557.57 3363.57 1544.68H3417.77ZM3510.35 1223H3672.36V1626.12H3775.78V1673H3510.35V1626.12H3618.16V1270.17H3510.35V1223ZM4067.87 1629.35C4057.32 1644.97 4044.14 1657.18 4028.32 1665.97C4012.5 1674.56 3994.24 1678.86 3973.54 1678.86C3956.93 1678.86 3941.89 1676.32 3928.42 1671.24C3914.94 1665.97 3903.42 1657.86 3893.85 1646.93C3884.28 1635.99 3876.86 1622.12 3871.58 1605.32C3866.5 1588.33 3863.96 1568.02 3863.96 1544.39V1356.01H3918.16V1544.97C3918.16 1562.16 3919.53 1576.42 3922.27 1587.75C3925 1599.07 3929.1 1608.16 3934.57 1614.99C3940.04 1621.63 3946.68 1626.32 3954.49 1629.05C3962.5 1631.79 3971.68 1633.16 3982.03 1633.16C4004.1 1633.16 4021.88 1628.66 4035.35 1619.68C4049.02 1610.7 4059.18 1598.59 4065.82 1583.35V1356.01H4120.31V1673H4071.09L4067.87 1629.35ZM4491.21 1518.02C4491.21 1540.68 4488.48 1561.87 4483.01 1581.59C4477.54 1601.12 4469.53 1618.12 4458.98 1632.57C4448.44 1647.02 4435.35 1658.35 4419.73 1666.55C4404.3 1674.76 4386.52 1678.86 4366.41 1678.86C4346.09 1678.86 4328.42 1675.25 4313.38 1668.02C4298.54 1660.79 4285.84 1650.44 4275.29 1636.96L4272.66 1673H4222.85V1223H4277.05V1389.99C4287.4 1377.1 4299.9 1367.24 4314.55 1360.4C4329.2 1353.57 4346.29 1350.15 4365.82 1350.15C4386.13 1350.15 4404.1 1354.15 4419.73 1362.16C4435.35 1370.17 4448.44 1381.3 4458.98 1395.56C4469.53 1409.82 4477.54 1426.91 4483.01 1446.83C4488.48 1466.55 4491.21 1488.23 4491.21 1511.87V1518.02ZM4437.01 1511.87C4437.01 1496.44 4435.45 1481.79 4432.32 1467.92C4429.39 1453.86 4424.61 1441.55 4417.97 1431.01C4411.33 1420.27 4402.64 1411.77 4391.89 1405.52C4381.15 1399.27 4367.97 1396.14 4352.34 1396.14C4342.97 1396.14 4334.38 1397.41 4326.56 1399.95C4318.75 1402.3 4311.72 1405.71 4305.47 1410.21C4299.41 1414.5 4293.95 1419.68 4289.06 1425.73C4284.38 1431.59 4280.37 1438.04 4277.05 1445.07V1583.64C4280.57 1590.68 4284.67 1597.22 4289.36 1603.27C4294.24 1609.13 4299.8 1614.31 4306.05 1618.8C4312.3 1623.29 4319.34 1626.81 4327.15 1629.35C4334.96 1631.69 4343.55 1632.86 4352.93 1632.86C4367.77 1632.86 4380.47 1629.84 4391.02 1623.78C4401.76 1617.53 4410.45 1609.13 4417.09 1598.59C4423.93 1588.04 4428.91 1575.83 4432.03 1561.96C4435.35 1548.1 4437.01 1533.45 4437.01 1518.02V1511.87ZM4584.08 1406.69V1350.73L4842.77 1461.48V1504.25L4584.08 1615.29V1559.04L4773.63 1487.55L4791.21 1482.57L4773.63 1477L4584.08 1406.69Z" fill="#F04F2A"/>
</svg>
