<svg width="1443" height="830" viewBox="0 0 1443 830" fill="none" xmlns="http://www.w3.org/2000/svg">
<path d="M119.742 425.762L104.215 430.742L119.742 436.016L299.039 505.156V562.578L50.6016 451.543V408.77L299.039 298.027V355.449L119.742 425.762ZM688.395 491.68C685.855 511.406 680.777 529.57 673.16 546.172C665.543 562.578 655.582 576.738 643.277 588.652C631.168 600.371 616.715 609.551 599.918 616.191C583.316 622.637 564.762 625.859 544.254 625.859C526.676 625.859 510.66 623.418 496.207 618.535C481.949 613.457 469.156 606.523 457.828 597.734C446.695 588.945 437.027 578.594 428.824 566.68C420.816 554.766 414.078 541.777 408.609 527.715C403.336 513.652 399.332 498.906 396.598 483.477C394.059 468.047 392.691 452.422 392.496 436.602V377.129C392.691 361.309 394.059 345.684 396.598 330.254C399.332 314.824 403.336 300.078 408.609 286.016C414.078 271.953 420.816 258.965 428.824 247.051C437.027 234.941 446.695 224.492 457.828 215.703C469.156 206.914 481.949 200.078 496.207 195.195C510.465 190.117 526.48 187.578 544.254 187.578C565.543 187.578 584.586 190.898 601.383 197.539C618.18 203.984 632.633 213.262 644.742 225.371C656.852 237.285 666.52 251.641 673.746 268.438C681.168 285.234 686.051 303.789 688.395 324.102H634.195C632.438 311.211 629.41 299.199 625.113 288.066C620.816 276.934 615.055 267.168 607.828 258.77C600.602 250.371 591.715 243.828 581.168 239.141C570.816 234.258 558.512 231.816 544.254 231.816C531.363 231.816 519.938 233.965 509.977 238.262C500.211 242.363 491.715 248.027 484.488 255.254C477.457 262.48 471.5 270.879 466.617 280.449C461.93 290.02 458.121 300.176 455.191 310.918C452.262 321.66 450.113 332.695 448.746 344.023C447.574 355.156 446.988 365.996 446.988 376.543V436.602C446.988 447.148 447.574 458.086 448.746 469.414C450.113 480.547 452.262 491.582 455.191 502.52C458.121 513.262 461.93 523.418 466.617 532.988C471.305 542.559 477.262 551.055 484.488 558.477C491.715 565.703 500.211 571.465 509.977 575.762C519.742 579.863 531.168 581.914 544.254 581.914C558.512 581.914 570.816 579.668 581.168 575.176C591.715 570.684 600.602 564.434 607.828 556.426C615.055 548.223 620.816 538.652 625.113 527.715C629.41 516.582 632.438 504.57 634.195 491.68H688.395ZM1048.75 491.68C1046.21 511.406 1041.13 529.57 1033.51 546.172C1025.89 562.578 1015.93 576.738 1003.63 588.652C991.52 600.371 977.066 609.551 960.27 616.191C943.668 622.637 925.113 625.859 904.605 625.859C887.027 625.859 871.012 623.418 856.559 618.535C842.301 613.457 829.508 606.523 818.18 597.734C807.047 588.945 797.379 578.594 789.176 566.68C781.168 554.766 774.43 541.777 768.961 527.715C763.688 513.652 759.684 498.906 756.949 483.477C754.41 468.047 753.043 452.422 752.848 436.602V377.129C753.043 361.309 754.41 345.684 756.949 330.254C759.684 314.824 763.688 300.078 768.961 286.016C774.43 271.953 781.168 258.965 789.176 247.051C797.379 234.941 807.047 224.492 818.18 215.703C829.508 206.914 842.301 200.078 856.559 195.195C870.816 190.117 886.832 187.578 904.605 187.578C925.895 187.578 944.938 190.898 961.734 197.539C978.531 203.984 992.984 213.262 1005.09 225.371C1017.2 237.285 1026.87 251.641 1034.1 268.438C1041.52 285.234 1046.4 303.789 1048.75 324.102H994.547C992.789 311.211 989.762 299.199 985.465 288.066C981.168 276.934 975.406 267.168 968.18 258.77C960.953 250.371 952.066 243.828 941.52 239.141C931.168 234.258 918.863 231.816 904.605 231.816C891.715 231.816 880.289 233.965 870.328 238.262C860.562 242.363 852.066 248.027 844.84 255.254C837.809 262.48 831.852 270.879 826.969 280.449C822.281 290.02 818.473 300.176 815.543 310.918C812.613 321.66 810.465 332.695 809.098 344.023C807.926 355.156 807.34 365.996 807.34 376.543V436.602C807.34 447.148 807.926 458.086 809.098 469.414C810.465 480.547 812.613 491.582 815.543 502.52C818.473 513.262 822.281 523.418 826.969 532.988C831.656 542.559 837.613 551.055 844.84 558.477C852.066 565.703 860.562 571.465 870.328 575.762C880.094 579.863 891.52 581.914 904.605 581.914C918.863 581.914 931.168 579.668 941.52 575.176C952.066 570.684 960.953 564.434 968.18 556.426C975.406 548.223 981.168 538.652 985.465 527.715C989.762 516.582 992.789 504.57 994.547 491.68H1048.75ZM1134 353.691V297.734L1392.69 408.477V451.25L1134 562.285V506.035L1323.55 434.551L1341.13 429.57L1323.55 424.004L1134 353.691Z" fill="#F04F2A"/>
</svg>
