<svg version="1" xmlns="http://www.w3.org/2000/svg" width="1924" height="1924" viewBox="0 0 1443.000000 1443.000000"><path d="M535.7 493.6c-.1.2-4 .6-8.7 1-4.7.3-9.6 1.1-10.9 1.6-1.3.4-2.6.7-2.8.4-.2-.2-2.5.2-5 1s-4.9 1.1-5.4.8c-.5-.3-.9-.1-.9.5 0 .5-1.5 1.2-3.2 1.6-6 1.3-32.3 13.8-34.8 16.6-.3.3-2.3 1.8-4.5 3.5-6.7 4.9-14.9 12.7-21.5 20.4-1.2 1.4-3 3.5-4.1 4.8-1 1.2-1.9 2.7-1.9 3.2 0 .6-.4 1-.8 1-.5 0-1.4 1-2.1 2.2-.6 1.3-1.7 3.2-2.4 4.3-5 8.1-9.8 16.9-12.1 22-1.5 3.3-3.2 6.8-3.7 7.7-2.1 4.1-10.1 29.1-11.5 36.1-.2 1-.5 2.6-.8 3.5-.3.9-.8 3.4-1.2 5.6-.3 2.1-.8 4.8-1 6-1.2 6-1.6 9-3.1 28.1-1.5 18.5-.7 97.3 1.2 108.7.2 1.3.6 4.3.9 6.8 1.5 11.7 6.1 32.7 8.3 38 .3.8.8 2.3.9 3.3 1.2 5.8 13.5 33.8 16.1 36.5.7.7 1.3 1.8 1.3 2.4 0 .6 1 2.5 2.3 4.2 1.2 1.7 2.8 4.3 3.5 5.8.6 1.6 1.6 2.8 2.2 2.8.5 0 1 .5 1 1.2 0 1.6 9 12.1 16.9 19.6 6.2 6 22.1 18.2 23.6 18.2.4 0 1.9.8 3.3 1.8 5.7 4 26.9 12 36.2 13.7 1.4.2 3.6.7 5 1 9.8 1.9 37.5 2.6 48 1.2 11.5-1.6 15.4-2.3 19.8-3.6 1.7-.5 3.2-.7 3.2-.4 0 .3.7 0 1.5-.7s1.5-.9 1.5-.5.6.3 1.3-.3c.6-.5 2.7-1.3 4.6-1.7 1.9-.4 5-1.6 6.8-2.6 1.8-1 3.3-1.6 3.3-1.4 0 1.1 20-10.6 22.8-13.2.7-.7 1.7-1.3 2-1.3 1.3 0 13-10.7 18.7-17.1 5.1-5.6 11.5-13.6 11.5-14.3 0-.3 1.4-2.6 3.1-5.1 11.1-16.4 22.8-50.4 23.3-67.5l.1-3.4-26.6-.1h-26.6l-1.7 9c-6.9 36.6-23.1 61.1-48.1 72.9-2.2 1-4.7 2.2-5.6 2.7-.9.4-3.6 1.3-6 1.9-4.3 1.2-5.2 1.4-11.4 2.6-10.4 2.1-37.9.4-45.7-2.7-1.5-.6-3-1.1-3.2-1-.3 0-3.6-1.6-7.3-3.5-19.2-10.1-31.6-24.2-41.8-47.5-2-4.6-3.8-9.1-4-10-.2-.9-1.1-3.9-2-6.5-2.4-6.8-5.9-21.6-7-28.9-.1-1.1-.6-3.6-.9-5.5-1.6-8.2-1.9-18.2-1.9-67.5 0-58.1.3-63.7 4.7-84.5.3-1.4.8-3.9 1.2-5.5 1-5.2 7.5-24.9 9-27.3.8-1.2 1.2-2.2.9-2.2-.8 0 8.8-18.3 10.5-20 .3-.3 1.8-2.3 3.5-4.5 3.1-4.3 14.4-15.5 15.6-15.5.4 0 1.4-.6 2.1-1.3 4.4-4.4 24.3-12.8 31.3-13.2.6 0 1.5-.3 2-.6 2.2-1.3 28.5-.7 34.6.7 3.5.8 7 1.6 7.9 1.8.8.2 2.9.8 4.5 1.5 1.7.6 4.4 1.7 6 2.3 1.7.7 4.1 1.9 5.5 2.8 1.4.9 4.5 3 6.9 4.6 10.5 6.8 21.5 20.4 28 34.7 3.7 7.8 8.8 22.8 9.7 28.3.4 2.4.6 3.6 1.9 10.4.3 1.9.8 3.6 1 3.8.3.3 40 .5 51.6.2 1.6 0 3.5-4 1.9-4-.4 0-.7-1.4-.6-3 .1-1.7-.1-3-.4-3-.4 0-.6-1-.5-2.3.1-1.2 0-2.7-.4-3.2-.3-.6-.7-2.1-.9-3.5-.2-1.4-1-5-1.8-8s-1.6-6-1.8-6.5c-2.3-9-13.1-35-15.6-37.5-.7-.7-2.9-4.3-3.7-6-2.3-5-17.4-21.8-26.8-29.9-5.6-4.7-19.3-13.1-27.1-16.4-10.7-4.6-11.5-4.9-14.4-5.4-1.3-.2-2.9-.8-3.5-1.3-.6-.5-2.6-1.2-4.5-1.5-1.9-.3-5.1-1-7-1.5-3.7-.9-8.2-1.5-17.8-2.5-5.8-.7-25.1-1.3-25.5-.9zM900.8 493.4c-.1.2-4.7.6-10.2 1-5.4.3-10.2.8-10.5 1.1-.4.2-2.7.7-5.2 1-7 1-7.3 1-8.5 1.7-.6.4-2.1.9-3.5 1.2-6.4 1.2-29.6 11.1-31.9 13.6-.3.3-3.6 2.5-7.3 4.9-10 6.5-30.8 27.4-32.9 33.2-.4 1-1.2 1.9-1.8 1.9-.5 0-1 .5-1 1 0 .6-1.5 3.4-3.3 6.3-6.3 9.8-17.9 34.8-17.7 38 0 .4-.7 2.1-1.5 3.7-.9 1.7-1.3 3-1.1 3 .3 0-.2 1.9-1 4.2-.9 2.4-1.8 5.4-2 6.8-.3 1.4-.7 3.2-1 4-.3.8-.8 2.5-1 3.7-.2 1.3-.6 3.3-.8 4.5-2.9 14.6-3.1 16.6-5.1 38.8-.5 5.5-.6 87.3-.1 91.5.2 1.6.6 6.4 1 10.5 1.1 12 2.3 20.7 3.6 26 .5 1.9 1.2 4.7 1.5 6.2 1.2 6.5 1.6 7.9 2.5 10.3.5 1.4.7 2.5.4 2.5-.4 0-.1.7.6 1.5s1 1.5.7 1.5c-.3 0 .8 3.7 2.4 8.2 1.6 4.6 3.1 8.7 3.3 9.3 2.5 7.5 11.7 25.9 16.6 33.1 1.6 2.5 3 4.7 3 5 0 1.7 16.7 20.4 24.2 27 3.2 2.8 13.7 10.5 17.3 12.7 5.2 3 23.3 11.6 26 12.2.6.2 3.6 1 6.7 1.9 3.1 1 7 1.9 8.5 2.2 1.5.2 3.7.6 4.8.9 11.9 2.6 42.7 2.6 57-.1 1.7-.3 3.8-.6 4.8-.7.9-.1 1.7-.5 1.7-1 0-.4.4-.6.9-.3 1.1.7 19.9-5 21.8-6.5.7-.6 1.3-.9 1.3-.6 0 .5 10.8-4.8 17-8.4 10.2-5.9 27.2-20.8 33.5-29.4 1.7-2.2 3.3-4.2 3.6-4.5 2.8-2.2 19.8-33 18.3-33-.3 0 .2-1.2 1-2.8.8-1.5 2.2-5.2 3.1-8.2.9-3 1.9-6.2 2.2-7 .3-.8.7-2 .8-2.5 0-.6.4-2.1.8-3.5s.9-3.6 1.1-5c.3-1.4.5-2.5.6-2.5.2 0 .7-2.5 1.4-7.2.3-2.1.7-4.8 1-6 .2-1.2-.1-2.3-.7-2.5-1-.3-47.4-.2-51.8.1-.9 0-1.6.7-1.6 1.3-.1 1.4-.9 5.6-1.9 9.8-.3 1.4-.7 3.4-.8 4.5-.2 1.1-.6 2.7-.9 3.5-.4 1.2-3.4 11.2-4.2 14-.1.3-.9 2.2-1.8 4.4-.9 2.1-1.7 4.2-1.7 4.7s-.4.9-1 .9c-.5 0-.9.3-.8.7.9 4.6-15.1 24.4-25.3 31.4-8.1 5.5-20.5 11-28.3 12.5-12.4 2.4-38.5 2.5-44.6 0-.8-.3-2.7-.7-4.1-1-1.5-.2-4.1-1.1-5.8-2-1.7-.9-3.3-1.6-3.6-1.6-.7 0-7.9-3.4-8.5-4-.3-.3-2.5-1.8-5-3.4-7.2-4.7-23-21.5-23-24.5 0-.5-.4-1.1-.8-1.3-.9-.3-10.1-19-10.8-21.8-.2-.8-1.5-4.9-3-9-1.4-4.1-2.8-8.9-3.1-10.5-.3-1.7-.8-3.7-1.3-4.5-.4-.8-1.1-3.8-1.5-6.5-.5-2.8-.9-5.5-1.1-6-1.4-6-2.7-17.4-2.8-25.2-.1-2.9-.3-5.3-.7-5.3-.3 0-.4-21.5-.3-47.8.1-26.2.2-47.7.3-47.7.1 0 .4-2.9.7-6.5.2-3.6.7-7.9.9-9.5.3-1.7.8-5 1.1-7.5.3-2.5 1.3-7.2 2-10.5.8-3.3 1.7-7.1 2-8.5.8-4 5.4-18.3 6.4-20.2.6-1 1-2.5 1-3.3 0-.8.5-1.5 1.1-1.5.5 0 .8-.3.5-.8-.4-.7 2.8-7.7 6.5-14.2 9.6-16.8 24.7-30.4 41.2-37 11.5-4.6 17.2-5.5 33.7-5.5 12.6 0 18.6.4 20.5 1.4.6.3 1.9.7 3 .9 6.2 1.1 15.8 5.4 23.9 10.5 6.9 4.5 17.6 14.4 17.6 16.4 0 .7.4 1.3 1 1.3 1.3 0 7.1 9.3 11.2 18 4.1 8.8 5.1 11.6 7.1 19 3.4 12.5 3.8 14.4 4.4 18.8.3 2.6.7 4.9.8 5 .3.3 42.1.5 52.7.2 1.2 0 1.6-.6 1.2-2.3-.2-1.2-.6-4.2-.9-6.7-.5-4.1-1.1-7.2-3.1-15.5-.4-1.7-.8-3.6-1-4.2-1.4-6.8-8.2-24.9-13.1-34.8-8.4-16.8-24.8-36.5-39.3-47.1-9.4-6.9-30.4-17.3-37.8-18.8-.9-.1-2.4-.6-3.2-.9-4.8-2.1-17.4-4.2-30.5-5.2-4.4-.3-10.3-.8-13.2-1-2.8-.2-5.3-.2-5.5-.1zM294 606.2c-9.3 4.2-11.5 5.2-12 5.3-.3.1-4 1.8-8.3 3.8-4.3 2-8 3.7-8.2 3.7-.2 0-4.3 1.8-9 4s-8.8 4-9 4c-.2 0-3.4 1.4-7.2 3.1-3.7 1.7-8.1 3.7-9.8 4.4-1.6.7-5.5 2.4-8.5 3.8s-15.8 7.1-28.5 12.7c-12.6 5.6-23.4 10.5-24 11-.5.4-2.8 1.3-5 2s-5.6 2.1-7.5 3.1c-1.9 1-10.2 4.7-18.5 8.4-8.2 3.6-16.8 7.5-19 8.5-12.7 5.9-19.5 8.8-19.5 8.2 0-.4-.4-.2-.8.4-.4.5-3.2 2-6.2 3.3-3 1.3-7.3 3.2-9.5 4.2S73 704.8 65 708.3l-14.5 6.4v19.9c-.1 11 .1 20.6.3 21.5.3 1.5 5.1 3.8 38.2 18.7 3 1.3 7.3 3.2 9.5 4.2s6.1 2.7 8.6 3.9c2.6 1.1 9.3 4.1 15 6.7 13 5.8 17.7 7.9 23.7 10.5 2.6 1.2 7.2 3.2 10.2 4.6 3 1.4 11.6 5.2 19 8.5s15.1 6.7 17 7.6c1.9.9 3.7 1.6 4 1.7.3.1 2.5 1.1 5 2.2s10.8 4.9 18.5 8.3c7.7 3.4 14.9 6.7 16 7.3 1.1.6 2.5 1.2 3 1.3.6.1 4.2 1.7 8 3.5 3.9 1.8 7.2 3.4 7.5 3.4.9.3 8.3 3.6 13.5 6 2.8 1.3 9.3 4.2 14.5 6.4 5.2 2.3 11.2 5 13.3 6.1l3.7 1.9v-57.7l-8.2-3.2c-4.6-1.7-9.2-3.5-10.3-4-5-2-15.6-6.1-21.5-8.3-3.6-1.4-10.7-4.1-15.8-6.1-5.1-2-12.3-4.7-16-6.1-3.7-1.4-7.6-2.9-8.7-3.4-1.1-.5-5.8-2.3-10.5-4.1-4.7-1.8-9.4-3.6-10.5-4-1.1-.5-6.7-2.7-12.5-4.9s-11.8-4.5-13.5-5.2c-1.6-.7-3.4-1.3-4-1.4-.5-.2-6.6-2.5-13.5-5.3-6.9-2.7-19.5-7.5-28-10.7-8.5-3.1-16.8-6.2-18.4-6.8-2.9-1-2.7-1.2 5.5-3.8 4.6-1.6 8.5-2.9 8.7-3 .1-.1.5-.2 1-.4.4-.1 1.6-.5 2.7-1s8.1-3.2 15.5-6c7.4-2.9 19.8-7.7 27.5-10.8 14.3-5.6 37.6-14.8 61-23.9 7.2-2.8 13.9-5.4 15-5.9 1.1-.5 6.7-2.7 12.5-5 5.8-2.2 11.6-4.6 13-5.2 1.4-.6 2.7-1.1 3-1.2 2.3-.5 8.7-2.9 9.5-3.5.8-.5 8.1-3.5 11.5-4.6.3-.1 1.5-.5 2.8-.9l2.2-.7v-28.9c0-15.9-.1-28.9-.2-28.9-.2.1-2.3 1-4.8 2.2zM1134 631.9v27.8l4.8 1.9c2.6 1 4.9 1.9 5.2 1.9.3 0 3.9 1.3 8 2.9 4.1 1.5 10 3.7 13 4.8 3 1.1 6.6 2.5 8 3.1 1.4.6 3 1.2 3.5 1.3.6 0 2.4.7 4 1.4 1.7.6 4.1 1.6 5.5 2 1.4.5 12.9 4.7 25.5 9.5 12.7 4.7 23.5 8.7 24 8.9.6.2 1.9.7 3 1.1 1.1.4 5.6 2.1 10 3.7s8.8 3.3 9.7 3.9c1 .5 2.5.9 3.3.9.8 0 2.3.4 3.3.9 1.5.9 4.9 2.2 6.2 2.6 1.1.2 12.6 4.6 14.5 5.5 1.1.5 4.9 1.9 8.5 3.1 3.5 1.2 8 2.9 10 3.7 1.9.9 4 1.6 4.5 1.8.6.1 5.4 1.8 10.6 3.7 5.2 2 10.6 3.8 12 4.1 2.5.4 9.8 3.4 8.9 3.6-8.1 1.9-19.2 5.4-29 9.2-19.6 7.5-22.5 8.6-25 9.3-1.4.4-2.9 1.1-3.5 1.5-1.4 1-11.8 4.5-12.7 4.2-.5-.1-.8.2-.8.8 0 .5-.5 1-1.2 1-1 0-24.8 8.7-33.8 12.3-1.4.6-2.9 1.1-3.5 1.3-.5.1-4.6 1.7-9 3.4s-9.6 3.6-11.5 4.2c-1.9.5-3.9 1.4-4.5 1.8-.5.4-3.7 1.7-7 2.8-3.3 1.1-8.2 2.9-11 4-14.8 5.7-41.2 15.7-49.5 18.6l-3.5 1.3-.3 28.2c-.1 15.4 0 28.1.3 28.1.5 0 3.9-1.5 15.3-6.6 2.9-1.3 5.4-2.4 5.6-2.4.2 0 2.1-.8 4.2-1.7 2.2-.9 4.1-1.7 4.4-1.8.8-.3 5.3-2.2 10-4.3 12.8-5.7 16-7 16-6.5 0 .3.8-.1 1.8-1 .9-.8 1.9-1.6 2.2-1.6 1.2 0 12.9-4.8 17.2-7.2 1-.5 2.5-.9 3.3-.9.8 0 1.5-.4 1.5-.8 0-.5.6-.9 1.3-.9 1-.1 22.2-9 37.2-15.7 1.7-.8 7.5-3.3 13-5.6s11.8-5 14-6c2.2-1 6.9-3 10.5-4.5 3.6-1.5 8.1-3.4 10-4.3 1.9-.9 3.7-1.7 4-1.8.6-.1 2.2-.8 17.5-7.4 6.6-2.8 13.6-5.8 15.5-6.7 1.9-.8 14.8-6.3 28.5-12.2l25-10.8.1-21.6c0-21.1 0-21.7-2-22.3-2.6-.8-10.3-4.1-13.6-5.9-1.4-.7-2.9-1.4-3.5-1.5-1.5-.4-4.6-1.6-9.5-3.8-4.4-2-12-5.3-13-5.7-1.3-.5-18.3-7.6-23-9.7-2.5-1.1-5.8-2.6-7.5-3.3-1.6-.7-5.9-2.5-9.5-4-3.6-1.5-8.3-3.6-10.5-4.6-2.2-1-6.8-3-10.2-4.4-3.5-1.4-8.7-3.6-11.7-5s-5.7-2.5-6-2.5c-.3 0-2.9-1.1-5.8-2.4-2.9-1.3-9.8-4.3-15.3-6.6s-11.6-4.9-13.5-5.8c-1.9-.9-3.7-1.7-4-1.8-.3 0-2.1-.7-4-1.6-1.9-.8-6.4-2.8-10-4.3-3.6-1.5-7.8-3.3-9.5-4-13.7-6.1-16.5-7.3-16.5-6.9 0 .3-1-.2-2.2-1-1.2-.9-3-1.6-4-1.6s-1.8-.5-1.8-1c0-.6-.8-1-1.8-1s-2.2-.4-2.8-.8c-.5-.4-4.7-2.3-9.4-4.2-4.7-1.9-8.6-3.8-8.8-4.2-.2-.4-1.5-.8-2.8-.8-1.3 0-2.4-.5-2.4-1 0-.6-.6-1-1.4-1-.8 0-5.3-1.8-10-4-4.7-2.1-8.6-3.6-8.6-3.3 0 .4-.5.2-1.2-.5s-1.6-1.2-2-1.2c-.4 0-.8 12.5-.8 27.9z"/></svg>